<svg xmlns="http://www.w3.org/2000/svg" width="196" height="196" fill="none" viewBox="0 0 196 196">
<style>
    @media (prefers-color-scheme: dark) {
      .favi-bg { fill: #ffffff; }
      .favi-fg { fill: #000000; }
    }
    @media (prefers-color-scheme: light) {
      .favi-bg { fill: #000000; }
      .favi-fg { fill: #ffffff; }
    }
  </style>
<circle class="favi-bg" cx="98" cy="98" r="98" /><path class="favi-fg" d="m77 128.386.34-1.977q1.365-7.296 3.887-13.841A44.1 44.1 0 0 1 88.25 100.5q4.569-5.59 11.795-10.023 8.796-5.181 13.296-11.25 4.568-6.067 6.068-14.659 1.09-6.681-1.227-11.182-2.25-4.567-6.682-6.886t-9.818-2.318q-5.182 0-10.296 2.182t-9.068 6.818q-3.954 4.568-5.59 11.795H56q2.454-12.272 9.546-20.727 7.158-8.523 17.318-12.886Q93.023 27 104.477 27q12.546 0 21.068 4.84 8.591 4.842 12.41 13.296 3.817 8.455 1.977 19.432-1.84 12.341-9.546 21.478-7.636 9.068-17.795 14.795-7.773 4.5-11.659 7.909-3.887 3.41-5.591 7.432-1.636 3.954-2.66 10.227l-.34 1.977zm.068 0 6.682-60.204h17.659l-11.727 60.204zm2.455 41.455q-5.727 0-9.546-3.955-3.75-3.954-3.75-9.681.136-5.66 4.296-9.478 4.227-3.886 9.818-3.886 5.522 0 9.477 3.954t3.682 9.41q-.136 3.817-2.114 6.954a15.1 15.1 0 0 1-5.113 4.909 13.5 13.5 0 0 1-6.75 1.773"/></svg>