<svg xmlns="http://www.w3.org/2000/svg" viewBox="292.5 -40 512.9 1040">
  <path fill="#1a1a1a" d="M338 294c-1 .7-2.3 1.3-3.2 2.2-1.8 1.9-.3 3.5.9 4.8 1.3 1.5 2.7.5 3.8-.7 4-4.2 9.3-6.4 14.6-8.1 4.5-1.4 8.6-4 13.7-4.6-9.7-6-20.2-7.1-31.1-6 6.8-3.7 13.8-3 20.7-1.2 6.3 1.7 12.4 3.9 18.2 7 3.2 1.7 6.4 3.2 10.4 1.9 2.8-.9 5.8 1.7 9.5 7.5-4.3 1-3.1 3.3-2.1 6.5 2.2 6.5 6.6 9.4 12.4 12.8 7.2 4.3 12.5 11.2 11.8 21.2-1.8 28-5.7 55.6-17.1 81.6-2.2 5.1-3.2 10.6-3.7 16-.9 8.6 2.8 10 10.1 8.4 1.9-.4 4.5-.9 5.7-3.4 1-2 2.7-.7 4-.3 7.1 2.1 13 .9 18.5-4.8 3.4-3.6 7.1-8.3 13.4-7.1 2.3.4 0-2.6 2-2.8 2 .4 2.9 2 3.1 3.9.7 7 6 9.6 11.4 11.7 4.2 1.6 8.2 2.4 10.7 7.1 1 1.9 4.2 2.8 5.1 6 .5 1.8 3.2 1.9 5.7.3-3.4-8.8-10.8-14.1-17.8-19.7 5-.5 7.9 2.6 10.8 5.6 3 3 5.7 6.4 9.2 9.1-.4-7.5-6.9-11-11-16.2 5.4 1.3 8.5 5.7 12.4 9.1 2.3-2.6.8-4.6-.2-6.2-2.2-3.7-5.4-6.6-9.4-8-5.5-1.9-9.3-5.6-13.5-9.4-6.5-5.7-8.2-15-16.2-18.2.3-2.9 2.4-1.7 3.2-2.7 1.2-1.5-1.4-3.1.4-5.1 5.7 4.3 9.1 10.2 11.8 16.6 1.1 2.5 1.8 5.1 3.1 7.4 2.2 3.8 4.9 7 9.7 7.9 3.8.7 6.5 3.8 10.2 5.7 1.3-6.9-7.9-6.4-7.4-11.7.7-6.2-6.8-6.4-7.7-11.6 4.1-2.2 7.4-.5 9.4 2.7 4.1 6.4 10.9 10.6 14.2 17.8 2.1 4.5 6.8 7.1 11.4 9.3 1.3.6 3 .6 3.8 2.8-3.3.9-5.8-.7-8.3-2.1-1.7-1-3.2-2.5-4.8-3.6-2.4-1.6-4.3-1.5-4.3 1.8 0 8.4-.1 16.9 9 21.6 2.1 1 3.8 2.8 5.8 3.8 7.6 3.9 11 10.4 11.8 18.5.6 5.9-.8 11.9 2 18.1-4.2-.5-4.2-3.1-4.3-5.1-.3-3.8-.1-7.7-.2-11.5-.2-7.6-3.2-13.5-10-17.2-5.9-3.1-10.9-7.5-15.5-12.1-2.7 1.9-1.7 3.4-.3 4.8 2 1.9 4.2 3.8 6.1 5.9 3.7 3.9 5.4 8.8 5.4 14.1-.1 7 1.3 13.2 6.4 18.3.7.7 1.1 1.7 1.5 2.6.2.3 0 .9-.1 2.5-4.4-3.6-7.6-7.1-8.9-11.9-.9-3.3-1.8-6.8-1.5-10.3.7-9.3-5.1-14.7-11.7-19.6-.8-.7-1.7-1-2.6-.1-1.3 1.2-.7 2.3.2 3.5 4.6 6.2 4 12.9 1.6 19.8-2.2-3.6.4-7.7-.7-11.5s-2.2-7.6-9.1-8c4.4 6.1 2.2 11.7 2 17.4-.2 7.1 5.5 10.1 11.5 6.2 3.3 3 6.8 6.1 10.3 9.4-2.7 2.3-4-.8-6-.4-1.9 1.1.6 3.1-1.2 4.9-.5.5-1.2-.5-2.1-.8-4.7-1.9-6.9-.6-7.7 4.4-.4 2.5-.4 2.5-3.6 4.5 3.4-5.9-2-11.1-.7-17.2-1.1-1.2-2.7-2-4.5-.5-1.7 1.5-.2 3.1.3 4.5 2.3 5.8 1.8 8-3.2 10.8 2.5-8.3-2.4-15.1-2.9-22.6-.3-3.5 1.6-4.4 3.7-4.6 4.3-.3 4.3-3.1 4.1-5.9-.4-3.4-.2-7.5-5.3-8.1-1.5 3 2.3 4.1 1.8 6.9-2.5 1.2-5 2.4-7.5-.8-1.4-1.8-3.3-2-5 .7-3.3-4.9-3.3-9.6-3.8-14.9 4.2 1.9 2.6 5.6 4.8 7.8 1.2-1.5-.5-4.3 2.1-5.3 2.8 1.2.3 4.8 2.8 6.5.8-2.4-.7-6.3 4.2-5.9-1.6-4.3-4.9-4.8-8.2-5.1-5.3-.4-10.6.2-15.9-.6-2.4-.4-5.1.5-3.2 4 1.9 3.6.1 5.2-3.1 5.5-3.6.3-7.3.3-11-.2-3.7-.4-7.9-1.2-3.8-8.2-4.8 2.1-8.3 3.2-11.2 5-4.3 2.8.8 6.8-.6 10-15.7-1.4-25.8-14.6-24.3-30.7 1.3-13.8 7.3-26.2 11.3-39.2 1.9-6.1 3.7-12.1 4.6-18.4 1.2-8.6-4-14-13.1-12.8-9.6 1.2-18.8 4.4-27.8 7.8-9.3 3.5-18.8 5.9-28.4 7.9-.8.2-1.6.4-2.3-.6.4-2.1 2.4-2.3 3.8-2.4 13.5-1.5 25.5-7.7 38.2-11.6 9.2-2.7 18.3-4.7 27.9-2.5 1 .3 2 .4 2.8-.4 2.1-2 3.3-14 1.6-16.4-.6-.8-1.2-1.6-2.7-1.6.5 4.7-2.4 5.7-6.3 5.7s-7.1 1.4-9.3 5.3c5.5 1.6 11.9-.3 15.9 5.6-9.6-5-19-1-28.7.7 1-4.4 7.6-1.9 6.4-7.2-.8-3.4-3.7-2.6-6.9-2.8 3.4-3.4 7.2-2.6 10.2-3.8 1.4-.6 3.2-.5 3.5-2.3.4-2-1.4-2.5-2.5-3.3-3.8-2.9-8.5-3.8-12.9-5.2-2.5-.8-4.4.4-4.3 3.2.2 6.4-1.8 11.8-6.7 16-.4.4-.9 1.3-.8 1.7 1 3.3-.3 4.5-3.5 5-3.3.5-4.3-1.2-4.5-5.6-2.3 5.4-4.7 6.6-9.4 5.7-5.2-.9-10.6-1.6-16.1-1.8-1.1 2.5-1.3 5.4-4.1 6.9 2.5.5 4.7-1.9 7.8.2-4.2 2.5-8 5.1-11 8.6-1.9-2.3.3-3.7-.1-5.3-.7-1.1-2.4.5-3.1-1.2.2-3.8 5.1-3.7 6.2-6.8-1-1.7-3.1.2-4.3-2 1.3-3.8.5-8.2.2-12.6-.4-5.5 3-10.1 6.5-14.2 5.6-6.5 12.7-10.7 21.2-12.4 8-1.6 16.1-2.6 24.3-2.3 5.2.2 9.5 2.9 14.3 4.2 6.3 1.6 11.1-1.1 15.8-4.6-5.1-1.3-8.8 4.3-14.4 2.7 2.1-3.8 7.5-2.2 9.3-6.3-3-1.6-6.1 2-9 0 .2-3 3.8-1.7 4.9-4.1-4.1-.5-8.1 1.5-11.8.3-1.1-2.1 1.8-2.1 1.2-4.2-5.3.9-10.2-3.1-16.1-1.5-2.4.7-5.9-.3-8.1-1.8-8.9-5.9-18.4-4.4-27.2-1.3-4.5 1.7-8.7 4.3-13.5 4.8-1.9-1.4 1.3-4.4-1.8-5.1-1.4-.3-2.2.6-2.9 1.6-2.4 3.3 1.2 5.3 1.8 8.1-.5 2-2.5 2.5-3.8 3.7-1.8 1.8-3.8 2.8-2.1 6.5 1.1 2.4 1.7 7.4-2.6 9.6-1.9 1-2.2 2.4-2.1 4.5 1 23.8 1.2 47.7 3.1 71.4 1.2 14.5 1.4 29.5 5.1 43.4 5.9 22.5 8.3 45.4 11.5 68.1 1.8 12.4 4.3 24.5 7 36.6 2.3 10 5.3 19.9 9.5 29.5 2.3 5.4 2.7 11.6 8 16.2.6.9.8 1.4 1.1 1.9.6 6.7 6.2 11.6 7 18.7v.4c-4.2-1.2-5.6-5.3-7.5-8.3-10.8-17.8-15.5-38-21.3-57.8-7.9-27.6-8.3-56.3-13.5-84.2-1.7-9-5.6-17.5-5.6-26.8 0-.5-.2-1-.2-1.5-1.8-21.6-6-42.9-5.7-64.8.3-19.7-1.4-39.5-3.7-59.2-1.1-9.9.9-19.9 1.1-29.9.1-3.5.1-7 .2-10.5 0-1 .2-1.9 1.9-2.5 1.1 6.5 2.1 12.9 3.2 19.2 3.7.4 3.7-4 7.5-4.3-2.3 4.2-3.9 8.2-7.6 10.7-1.6 1.1-2.4 2.2-2.3 4 0 .9.5 1.7 1.4 1.8 1.9.2 2.6-1.4 3.4-2.6 4.8-7.1 10.9-12.7 18-17.5 2.3-1.5 5-.5 7.4-1.6 1.1-.5.7 1.3.4 2.5zm22.1 33.6c-2.6.9-5.8-.2-7.7 2.9 6.1-1.5 13.2 4.1 19.2-2.9-4-2-7.4.3-11.5 0m-17.6 26.8c-2.2.6-3.3 2.7-2.4 4.1 2.1 3.5 6.2 2.8 9.8 3.4-3.4-1.5-3.9-5.5-7.4-7.5m57.2-23.9c-1.7 2 0 3.3 1.3 2.7 2.7-1.5 6.1-2 8.3-5.3-3.9-1-6.1 1.9-9.6 2.6m60.8-9c-1.3-2.2-4.2-2.1-5.1-4.8 4.2-1.1 6.4 1.7 8.7 4.2 2.4-3.8-.8-6.1-2.2-9.6 4.5 1.5 8.4 2.3 9.1-4.6 5.8 6 9.3 13.5 17.9 14.4-5.1-4.7-10.7-9.1-13.4-15.9 5.4 2.8 8.3 8.8 15 11.8-1.3-3.9-3.8-5.8-5.2-8.2-1.5-2.4-4.7-3.8-4.2-8 6.1 3.2 8 10.7 15.8 13.4-3-6-8.1-9.1-10.3-14.8 4.2.4 5.4 3.2 7.1 5.2 1.8 2 2.8 4.9 6.2 6 1.1-4.5-3.6-7.6-1.8-12.1 3.1-1.9 5.6-.3 7.3 2.8 3.1 5.7 7.2 6.2 13.3 4.6 15.8-4.1 31.8-5.1 47.8-.2.6.1 1.2 0 2.5 0-2.2-2.2-5.2-2-6.6-4.2.3-1.5 1.4-1.5 2.3-1.2 10.4 3.3 20.5 7 28.2 15.2 1.7 1.7 2 3.3-.7 5 7.2 3.3 9.7 10.3 14.5 15.6-3.7 2.7.2 4.7.9 6.3-5.8 9.6-11.1 18.9-20.7 24.5-9.4 5.3-19.9 8.1-29.8 14.2.4-4.1 3.1-4.8 5-5.8 5.8-2.7 11.6-5 17.4-7.5 8.9-3.9 15.7-10.1 20.6-18.3.9-1.5 2.4-3.3 1-5.1-1.5-2-3.4-.4-4.9.4-7.3 3.5-14.5 7.1-21.7 10.7-8.8 4.5-22.6 6.1-29.6 3.2 1-2.1 2.8-1.1 4.3-1.1 9.2-.3 18.6-.1 26.3-6.1 4.5-3.5 7.2-9 12.3-12.3-4-3.4-16.7-6.8-21.4-6-.8-.8-.1-1.5.4-2.1 4.3-4.6 4-6.5-1.9-8.7-2.6-1.1-5.4-1.7-8.1-2-3-.4-5.3.9-5.7 4.2-.7 8.1-4.7 13.8-12.3 16.7-1.6.7-1.8 2.3-3 3.4-5.9-8.1-13.5.9-20-2.6-1.6 5.1-5.3 6.9-9.5 8.1-1.6-2.8 1.8-3 1.3-5.1-4.1-1.5-8.4-.7-12.7-.9-1.7 0-4 .7-4.9-1.4-.9-2 1-3.3 1.9-4.8.9-1.6 2.8-2.4 3-4.7-2.1-1.4-3.9-1.4-5.7.5-2 2.2-4.2 4.2-6.2 6.4-4.2 4.5-6.4 4.9-11.8 1.8-1.4-.8-2.5-2.3-4.9-1.7 1.7 5.3 6.9 5.5 11.5 7.7-4.8 2.8-7.8-.9-11.7-1.3.4 3 2.4 4.2 4.5 5.4 1.9 1.2 4.5 1.4 6 3.7-2.5 2.9-4.9-.9-7.6.2-.7 3.1.2 6.2 3 7.6 12.2 6.1 21.5 16.7 34.3 22 6.1 2.5 11.7 2.2 17.4-.4 5.3-2.4 5.6-7.6.8-10.9-4.1-2.9-8.7-2.3-13.1-1.7-6.7.9-12.5-.4-17.9-4.2-4-2.8-8.1-5.3-12.1-8-1.7-1.2-3.2-2.5-2.9-4.9.3-1.5 1.6-2.1 3-1.9 2.4.2 4.8.6 5.5 3.4.8 3.3 3.1 5.3 5.6 7.4 6.2 5 12.7 7.4 20.8 5.6 4.4-1 9-.7 13 2.2 5.8 4.3 5.5 11.9-.9 15.1-6.6 3.1-13.2 3.8-20.6.7-9.8-4.1-16.8-11.9-25.9-16.7-3.7-2-7-5.7-12-2.7-7-9.9-11.6-21.3-22.2-28.4 3.9-1 3.9-1 7.7 2.9 2.1 2.2 4 4.4 5.9 6.8 1.7 2.3 3.3 4.8 5.4 7-2.2-5.5-4-11-6.3-16.4-2.4-5.6-7.1-9.1-14.7-8.2 4.8-4 8.2-3.1 16.4 4 .6-8.4-5.7-10.1-12.1-13.1 6.8-2.1 10.2 2.2 14.2 5 2.4-2.6.2-4.5-.8-6.7m83.4-12.4c1.7.3 3.3.6 4.9 1 2 .5 4.1.7 4.5-1.7.4-2.8-2.2-2.9-4.2-3-6.2-.4-12.3.6-18.4 1-1.4.1-3.1.1-3.7 2.3 5.3 2.7 10.8-.9 16.9.4m-31.8 23.4c-1.9 5.6 0 7.2 7.5 5.9-1-2.3-1.9-4.6-3-6.8q-2.25-4.5-4.5.9m-37.6-11.4c2.3 2.2 4.9 3.2 8.8 2.2-4.1-3-7-6.5-11.3-8.8-.9 3.3 1 4.5 2.5 6.6m-.8 16.3c-2.3-1.7-4.6-3.4-7.2-5.3.6 4.7 4.1 7.3 10.4 7.1-1.5-.8-2.1-1.1-3.2-1.8m32.8-28.9c-.5-3.5-3.1-5.3-6.4-8.3 1.2 4.5 1.9 7.8 6.4 8.3m-29.8 24.9c-2.3-1.4-4.6-2.8-7.7-4.8 3.6 5.2 5.7 6.6 9.9 6.5-.7-.6-1.2-1-2.2-1.7m1.5-4.5c-1.8-1.3-2.9-3.9-6.2-3.6 2 3.4 4.3 5.1 8.6 6.4-1.2-1.5-1.6-2-2.4-2.8"/>
  <path fill="#1a1a1a" d="M484 519c3.8-.5 7.3-.2 11.1 1.3 9.1 3.6 18.7 5.5 28.5 6.3.9-2.5-1-3.4-1.8-4.7-.9-1.8-2.4-3.5-.9-5.5 2.7-3.9 0-6.1-1.9-8.6-5.5 2.6-7.5 2-9-2.2-.4-1.2-.7-2.3.4-3.2 1.2-1 9.5.6 10.3 1.9 2.3 3.8 5.4 7.2 5.7 12.1.1 1.9 1.9 3 3.2 4.3 1.9 2 .2 2.6-1.3 3.5 2.5 2.3 5.8-.6 8.2 1.6 1-2.6-2-3.3-1.7-5.2 6.8-.2 12 2.9 14.5 8.9-1.3 1.9-2.3-.7-3.5-.2-.3 2.3-.3 4.7-2.2 6.2-1.7.7-2.2-1.6-3.9-1.2-2 2 .8 5.2-1 6.9-2.5 2.3-2.1 4.1.3 6.2-1.5 1.9-4.5 2.8-3.6 6.5-6.8-7-15.5-8.8-24.4-11.2 3.1-2.7 3.1-2.6 10.9-.1 3.4 1.1 6.2 3.7 10.5 3.9-1.3-3.6-4.7-6.2-3.1-10.3.4-1-2-2.3-3.1-1.7-3.5 1.8-8 .2-11.1 3.4-.5.5-1.5.9-2.2.8-4.3-.2-8.3.8-12.5 1.9-3.5 1-4.4-3.2-6.3-5.4-1.3-1.4-1.5-4.2-4.8-3.6.8 4 4.9 6.2 4.9 10.5-3.4-2.1-6.1-4.8-7.3-8.5-.7-2.5-2-3-4.3-3-8.6.1-16.9 1.8-25.1 3.8-3.8.9-7.9 1.5-10 5.7-.8 1.4-2.4 1.8-3.8.9-1.4-1.2.7-2.6-1.4-4.7-6.7 0-14.3-.3-22 .1-8.3.5-14.7 5.8-21.7 9.5-3.2 1.7-5.9 4.2-10.1 2.3-1.8-.8-3.9.1-5.5 1.6-1.8 1.6-3.8 3-5.9 4.6-1-3 1.6-4.7 1.5-7.9-.1-1.2-2.1.9-2.8-.8 1.2-5.1 5.5-8.3 10.3-8.4 8-.3 12-6.4 17.5-10.2 2.7-1.8 5-4.1 7.6-6 5.8-4.4 11.7-3.4 17 .6 3.5 2.5 9.5 1.2 10.4 7.9 1.7-2.3-.5-4 1-5.7 3.4 1.5 3.2 5.9 6 8.2 1.6-3.2-1.4-6.5 1-9.5 2.7 2.1 1.3 5.7 3.8 7.9.8-3.6-.6-7.2 1.2-11 2.8 3.1.5 7 2.8 9.8 2.4-4.3-.2-9.7 3.2-13.9 2.9 3.3 0 7 1.4 10.6 2.7-2.7 1.4-5.8 1.8-8.5.9-5.3 2.3-6 7.6-3.5-5.2 2.7-6.2 5.7-4.6 13.9 3.9-4.7 6.1-10.7 12.5-13.8-.1 5-4.7 6-5.4 9.6 2.8-1.2 4.1-3.9 6.3-5.6s4.5-3.2 6.4.7c-4.5 1-7.2 3.5-9.2 7.3.9.2 1.4.4 1.5.3 2.7-2.5 5.4-4.9 8.1-7.4m-57.7 13.5c1.9.1 3.9 1.1 5.7-.3-1.1-4.5-1.5-5-5.4-7.1-.8 1.6-.8 4.4-4 2.8.8 2.1 1.6 3.5 3.7 4.6M600 290c1.3 3.1 3.9 5.1 7.6 8.1-5.3 0-8.7.6-12.5-2.7-3.3-2.9-6.3-6.6-10.7-8.2-2.4-.9-3.9-3.1-5.5-5.1-1.5.8-2.8 1.5-4.3 2.4-.8 1 1.8 2-.1 3.8h-9.6c.1-2.5 2.7-1.8 3.8-4-2.4.6-4.2 1.2-6.2 1.5-4.1.7-7.9 2.8-12.4-1.1-2.1-1.8-7.3-.3-11.1.2-12.3 1.5-24 5.5-35.8 9.2-5.7 1.7-12.1 1.9-18.4 2-2.5 0-5 2.5-7.4 4.1-5.5 3.7-10.7 2.5-13.6-3.4-1.6-3.3-3-6.7-4.5-10-.2-.6-.1-1.3-.2-2.7 4.1 3.1 6.3 1.5 8.9-1.8 1.9-2.3 6.3-.6 8.8-3.3 2.3 2.2-2 9.1 5.4 7.1-1.9-6.3.4-9.7 7.2-11.4 9-2.2 18-2 27.2-1.4 3.8.2 9 2.1 11.4-3.7.3-.9 1.9-1.1 2.7-.6 3.8 2 8 .3 11.9 1.5.8.2 1.7.2 2.4-.2 6.7-3.2 12.8-1.2 15.1 5.4.5 1.6 1.4 2.6 3 2.8 1.1.2 2 0 2.5-1.1.5-1.5.4-2.9-.6-4.2-.8-1-2.1-1.7-1.6-3.7 3.1-.1 4.9 2.9 7.9 2.8 1.3-.6-.6-2.3 1.6-3.1 5.3 2.5 11.6 5 15.2 10.5 3 4.6 6.9 7.5 11.6 10.2z"/>
  <path fill="#1a1a1a" d="M324.8 204.2c-2.2 3.3-5.5 4.9-10.3 6.9 2.6-8.1 6.2-14.6 10.9-21.8 1.1 5.2-3 7.5-2.8 11.8 3.9-4.3 7.4-8.1 10.9-12 14.7-16.6 33.4-27.5 52.8-37.2 19.2-9.7 39.4-16.3 61-17.9 12.8-.9 25 .6 35 9.8 5.5 5 9.1 11.4 12.7 17.8 4.4 8 8.6 16.2 15.1 22.8 11.2 11.4 25.6 15.1 40.6 17.2 11.2 1.6 22.6 1.1 33.9 2.8 23.8 3.5 39.8 16.9 50.2 38.1 5.1 10.3 8.7 21.3 15.2 30.9 6.1 9 13.7 16.3 21.9 23.1 4.8 4 9.5 7.9 13.1 13.1 10.5 14.9 9 30-5 41.6-8.6 7.1-14.4 15.6-16 26.7-2.2 14.3-10.5 23.3-24 27.9-4.1 1.4-8.1 3.1-12.1 4.8-24.5 10.7-32.4 27.6-24.8 53.3 3.7 12.5 7.2 25 6 38.2-.9 10-1.6 19.9-1.8 29.9-.2 11.7 3.4 21.6 12.6 29.2 10 8.3 14.2 19.4 14.7 32.1 0 .6-.2 1.2-.3 1.9-2.7-.3-2.3-2.3-2.4-3.8-.3-11.6-5.3-20.9-13.9-28.2-10.3-8.8-13.8-19.9-13.4-33 .3-9.3 1-18.6 1.8-27.9 1.1-12.2-2.2-23.7-5.4-35.3-1.6-6.3-3.3-12.5-3.4-19.1-.2-16.8 7.6-28.7 22.1-36.3 6.8-3.5 13.9-6.4 21.1-9.1 11-4.3 18.1-11.8 20.1-23.5 2.2-12.5 8.1-22.3 17.9-30.7 13.5-11.5 13.9-24 3.1-38.3-5.9-7.8-14.3-12.9-21.2-19.7-9.2-8.9-16.4-19.1-21.4-31-3.8-9-7.7-18.1-13.2-26.3-11.2-16.9-27.5-24.8-47.3-26.7-14.3-1.4-28.6-1.1-42.6-4.8-17.1-4.6-30-14.1-38.5-29.5-2.9-5.1-5.7-10.2-8.6-15.3-8.8-15.9-22.7-21.4-40.2-20.2-29.4 2.1-55.5 13.2-80.4 28-14.2 8.6-27.1 18.7-37.8 31.5-1.7 2-3.1 4.3-4.9 7-.5.7-.8.9-1 1.2"/>
  <path fill="#1a1a1a" d="M438.1 107c9.5-3.4 18.7-6.2 28.3-7.6 20.2-3 36.7 6.1 45 25.2 4.3 10.1 7.2 20.7 12.4 30.5 9.9 18.2 25.5 28.8 45 33.6 10 2.5 20.5 2.8 30.5 5 20.8 4.7 37.6 15.2 47.6 34.7 3.4 6.7 6.6 13.5 9.3 20.5 6.1 15.8 15.6 28.8 29.6 38.6 5.4 3.7 10.4 7.9 15.4 12 16.1 13.5 18.2 31 5.5 47.7-3 4-6.3 7.7-9.7 11.4-6.5 6.9-10.9 15.1-11.6 24.4-1.2 17.6-10.7 27.5-26.9 32.4-11.3 3.5-21.7 8.6-28.8 18.7-5.6 7.8-7.5 16.5-5.8 26 1.5 8.7 4.7 17 5.8 25.9 1.1 8.8 1.7 17.7-1.5 26.1-5.9 15.5-3.1 29 8.3 41 4.1 4.3 6.5 9.6 7.2 15.6 1.2 11.5 1.6 22.9-2.4 34-.7 2.1-1.1 4.5-3.8 5-1.2-1.1-.6-1.9-.2-2.9 5.9-11.7 5.3-24.2 3.7-36.6-.6-5.1-3-9.5-6.5-13.3-11.6-12-15-25.9-9.4-41.8 5.2-14.6 2.3-28.8-1.8-43.1-2.2-7.5-3.8-15.2-2.1-23.1 2.8-13.2 10.9-22.3 22.6-28.3 5-2.6 10.2-5 15.6-6.6 14.2-4.1 21.7-13.2 23.2-27.9 1.1-11.5 6.2-21.3 14.3-29.5 3.8-3.9 7.4-8.1 10.4-12.8 8-12.8 6.2-27.3-5-37.6-4.7-4.3-9.7-8.7-15.1-12.2-17.3-11.4-28.3-27.3-35.5-46.4-1.8-5-4.1-9.9-6.4-14.6-10.3-21-28.4-31.1-50.3-35.6-6.5-1.4-13.1-1.9-19.7-2.9-29.6-4.8-49.7-21-59.7-49.4-2.7-7.6-5.1-15.2-9-22.2-8.1-14.7-23.9-22.1-40.5-19-27.5 5.1-52 17.2-75 32.7-12.9 8.8-25.5 18.2-39.4 25.4-4.7 2.4-8.3 6.2-11.9 9.9-1.1 1.1-1.8 2.9-4.2 2.8.3-3.6 2.8-5.6 5.1-7.6 7.3-6.4 16-10.6 24.2-15.8 15.7-9.7 30-21.6 46.5-30.1 8.7-4.4 17.5-8.3 26.7-12.2"/>
  <path fill="#1a1a1a" d="M357.4 195.5c-17.5 6.8-30.1 19.2-41.2 33.4-.2-3.4 1.9-5.7 3.8-8 20.5-25.2 48.2-35.8 79.6-37.8 18-1.1 31.1 8.1 40.6 22.8 5 7.8 10.6 14.9 18 20.6 7.1 5.3 14.8 8.1 23.6 8.3 19.2.5 38.3-1.7 57.3-3.5 41.5-3.9 73.7 10.6 96.2 45.7 7.5 11.7 15.2 23.2 23.4 34.3 9 11.9 10.2 24.6 2.1 37.6-2.8 4.6-5.6 9.1-8 13.9-6 11.6-15.5 18.8-27.8 22.7-6.2 2-12.1 4.7-18.2 7.1-24.1 9.4-30.6 31.1-26.7 53.5 1.3 7.7 4.4 14.9 5.5 22.7 1.1 7.4.9 14.6-.9 21.8-2.7 10.3-1.9 19.7 5.8 27.9 4.4 4.8 5.1 11 3.2 17-3.7 11.9-.8 21.2 9.9 27.9 1.3.7 2.7 1.4 2.7 4.2-5.6-2.1-10.1-5.2-12.9-9.9-3.6-6-5.6-12.4-3.1-19.5 2.7-7.7 1.6-14.4-4.2-20.8-7.3-8.1-6.4-18.2-4-28 2.5-10.2 1.6-20-1.5-29.9-3.6-11.7-5.9-23.3-3.4-35.8 3.2-16 12.2-26.7 26.9-32.9 7.6-3.2 15.4-6.3 23.2-9.2 9.8-3.6 17.2-9.8 22.3-19 3.2-5.8 6.8-11.4 10.1-17.2 5.3-9.3 5.8-19.4-.4-27.9-13-17.6-23.3-36.9-37.5-53.6-21.7-25.4-49.9-32.6-81.8-30-19.8 1.6-39.5 3.9-59.3 3.4-13.7-.2-23.8-7.6-32.9-16.8-6-5.9-9.6-13.6-15-19.9-10.3-12.2-23.3-16.5-38.8-14.5-12.5 1.6-24.6 4.3-36.6 9.4m224.1 543c-4.4 7.1-8.3 14.1-12.8 20.7-14.2 21-35.3 27.1-59.6 17.4-11.2-4.5-21.4-10.7-31.3-17.6-1.1-.7-2.5-1.3-1.9-3.4 2.8.2 4.7 2.1 6.8 3.5 10 6.6 20.3 12.9 31.7 16.6 21.4 6.9 40 .1 52.5-18.6 9.1-13.5 16.4-27.9 24.3-42 8-14.2 17.8-26.9 32.3-35.3 17.7-10.2 28.1-26.1 34.1-45.1 4.5-14.1 11-27.1 20.4-38.6 4.4-5.3 7.3-11.5 9.5-18 1.6-4.7 2.9-9.6 5.7-13.9 8-12.3 9.8-25.8 7.1-40.2-1.4-7.5-2.5-15.1-3.8-22.6-2.1-11.8.8-22.1 8.7-31.1 7.5-8.5 15.2-16.8 19.9-27.4.2-.5.9-.8 1.5-1.4 1.8 2.3.3 3.9-.5 5.5-3.8 7.1-8.2 13.9-14 19.4-11.9 11.5-15.4 25-12 41 2.6 12.4 5.2 24.8 3.4 37.6-.9 6.3-3.1 12.1-6.2 17.3-3.2 5.4-5.6 11-7.5 16.9-2.6 7.7-6.1 14.8-11.4 20.9-9.5 11.2-14.8 24.4-19.2 38.1-6.5 20.3-19.1 35.3-37.5 46.1-12.9 7.5-21.2 19.6-28.3 32.3-4 7.2-7.8 14.4-11.9 21.9M727.6 475c.9-5.4.2-10.8 4.9-14.9 1.6 2.4.4 4.6-.1 6.7-2.1 8.7-3.7 17.6-3.3 26.6.3 6.2 3.2 8.8 9.4 8.2 14.9-1.6 30.8-10.4 31.1-31.5 0-3.2.9-6.4 2.3-9.1 8.4-16.1 10-34.1 15.1-51.1 5-16.5 4.7-33.1 2.7-49.9-.9-8.5-3.7-16.3-11.4-21.2-3.9-2.5-8-3.9-12.8-2.7-2.1.6-4.4 1.8-7 .3 6.1-6.4 3.2-14.4 3.6-21.6.5-8.2-.7-16.6-1.1-24.9-.1-.8-.1-1.7 1.2-2.4 2 1.9 1.9 4.5 2.1 7 1 11.1 1.9 22.2 2 33.4 0 2.5.1 4.4 3.5 4.9 11.7 1.6 18.7 9 21.5 20.1 4.2 16.6 4.3 33.3.7 50-3.2 14.6-7 29.1-10.8 43.6-.9 3.9-2.4 7.7-4 11.3-2.9 6.1-4.8 12.2-5.6 19-1.8 14.1-14.5 25.5-29.9 27.2-4.1.5-5.8 2.2-6.5 6-2.8 15.7-5.1 31.5-6.8 47.4-.4 3.4-.6 6.8-2.3 11.4-2-6-.4-10.7-.1-15.2 1.3-15.4 2.3-30.9 5.8-46 1-4.5-4.1-5.7-5.4-9.8-4 7.1-3.4 14.9-7.2 21.2-.1-15.1 7.9-28.7 8.4-44"/>
  <path fill="#1a1a1a" d="M324.8 204.5c.2-.6.5-.8.8-1.2 4.3-2.2 7.2-5.8 10.6-8.7 19-15.8 40.9-25.4 64.8-30.8 11.3-2.6 22.6-3.7 34.2-2.2 10.4 1.3 19.1 5.2 25.5 13.8 7.2 9.6 13.3 20.1 21.7 28.7 9.3 9.4 20.4 13.9 34.1 13.2 16.8-.9 33.5-4.1 50.3-2.7 23 1.9 43 10 58.8 27.2 6.6 7.2 10 16.3 14.7 24.6-1.9 1.4-2.6.2-3.2-.7-1.2-1.8-2.4-3.6-3.3-5.6-11.4-24.9-32.3-36.7-57.9-41.8-14.6-2.9-29.2-.7-43.8.5-7.3.6-14.6 1.2-21.9 1-17.9-.7-29.6-11.6-39.2-25.3-3.5-4.9-7.2-9.6-10.4-14.7-6.9-11-17.4-16.3-29.8-16.3-38.6.3-72.3 13.3-100.4 40-3.3 3.1-5.6 7-8.4 10.6-.9 1.2-1.4 3.1-3.9 2.8.9-4.8 5.4-7.6 6.7-12.4"/>
  <path fill="#1a1a1a" d="M572.8 248.9c19.7 5.4 35.5 16.1 47.3 32.2 7.4 10.1 11 21.6 10.3 34.3-.1 1.3.5 3-1.5 3.8-1.9-1.1-1.1-2.9-1.1-4.4.4-15.4-5.5-28.3-15.8-39.2-15.6-16.7-35.2-24.8-57.8-27.4-21.3-2.4-41.6 2.4-62.2 6.6-18.5 3.7-37.2 5.7-55.8.6-2.4-.6-5-1.3-7.4-.9-7.1.9-12.1-2.1-16.3-7.3-2.3-2.9-5-5.4-7.6-8-17-17.1-37.2-17.9-58.7-11.1-12.7 4.1-22.3 12.5-30.3 22.8-.9 1.2-1.9 2.3-2.9 3.4-.2.2-.6 0-1 0-.9-1.5.5-2.4 1.2-3.4 15.5-23.7 46.7-35 73.7-26.5 9.2 2.8 16.1 9.2 22.7 15.9 1.9 1.8 3.7 3.8 5.5 5.8 3.5 4 7.2 7.1 13.3 5.7 1.9-.5 4.3.1 6.4.7 19.5 5.7 38.9 3.4 58.2-.6 13.2-2.7 26.3-5.8 39.8-6.8s26.6.9 40 3.8m85.5-41.2c10.4 10 14.7 22.9 18.9 35.7 5.1 15.1 13.5 27.7 26.3 37.4 6.7 5 13.1 10.3 18.8 16.4 9.3 9.7 13.7 21.4 10.9 34.7-1.9 9.2-8.7 15.4-15.5 21.5-1.4-1.9-.6-2.7 0-3.4 1.1-1.3 2.2-2.5 3.3-3.7 14.3-15.6 13.7-33.9-1.7-48.5-4.2-4-8.5-8.1-13.2-11.4-16.9-11.9-27.7-27.9-33.4-47.7-6.9-23.8-22.3-39.1-46.1-46.3-14.5-4.4-29-8.5-43.1-14.2s-24.2-15.2-30.6-28.7c-6.2-13.2-11.8-26.7-18-41 3.3 1.2 4.1 3.4 5 5.3 3.7 8.4 7.8 16.6 11 25.2 7.7 21.1 22.4 34.3 43.8 40.9 14.8 4.5 29.9 8.1 44.1 14.4 7.3 3.1 13.7 7.4 19.5 13.4M424.7 496.4c5.1-4.1 7.7-9.3 8.7-15.3.4-2.3 0-4.6 2.4-6 2.8.4 2.6 2.7 3.3 5.5.9-2.3 1.6-3.7 2.1-5.1s.9-2.8 1.3-4.2c6.6 1 9.1 4.5 8.5 11.7-.1 1.9-.3 3.9-.5 5.8-.3 2.8.7 4.7 3.6 5 3.3.3 3.2-2 3.1-4.3 0-.4.4-.8.7-1.3 4.6 4.3 4 9.7-1.3 11.8-1.5.6-2.7 1.4-3.3 2.9-1.6 4.2-5.5 6-8.7 8.6-1.8 1.5-14.5.4-16.1-1.2-3-3.2.7-5.4 1.2-8.1-4.4-1-4.4-1-10.6 3.1-3.1-2.8-.9-5.6-.1-8.3 1.9-.9 3.8 1 5.7-.6m20.5-.1c-1.4-2.2-2.9-4.3-4.4-6.4-6 4.2-5.6 6.7 2.1 13.7 1.3-2.1 2.7-4.1 2.3-7.3M745.3 392c1.5.7 3.7.4 3 2.7-.8 3 2.1 1.8 3.3 3.1-1.3 3.7-2.7 7.5-4.3 12.2 3.2-2.5 3.9-6.1 6.7-7.6.5.2.9.5 1.3.7-2.5 5.1-5.1 10.2-8.1 16.1 4.3-3.8 6.4-8.7 11.3-11.5.7 3.5-2.2 4.6-2.7 6.9 1.6.6 2.4-2.1 4.3-.7.7 2.8-3.1 3.8-3.1 6.6.7.6 1.6-1.1 2.5-.2-1.2 15-8.2 22-22.6 23.3-3.2.3-3.5-2.1-2.8-4.4 1-3.2 2.7-6.1 5.2-8.4 3.4-3.3 4.2-7.3 3.4-11.9-1-6.5-2.5-12.6-6.5-18.4-3.3-4.7.7-10.2 3.1-15.1 3.5 1.3 3.3 5 6 6.6M446 773c-4.2-5-9.5-7.8-14.7-10.7-2.7-1.5-5.3-2.8-8.1-4-13.8-5.9-22.6-16.1-26.3-30.6-3.8-14.5-9.6-28.4-15.1-42.3-.6-1.5-1.7-2.9-.9-5 2.4.5 2.6 2.7 3.3 4.3 5.2 13.3 11.2 26.4 14.5 40.4 3.8 16.5 14.4 26.5 29.5 32.7 13 5.3 22 14.9 29.8 26.3s16.3 22.5 29.8 28c8.2 3.4 16.9 5.5 25.6 6.4 19.3 1.9 30 13.9 37.2 30.1 4.4 9.9 9.5 18.7 17.7 26.1 12.4 11 19.2 25.7 23 41.8 1.5 6.2 3 12.4 4.7 19.2-2.9-.9-2.9-2.9-3.4-4.5-2.6-9.2-4.1-18.8-8-27.7-5-11.7-11.4-22.2-21.3-30.3-7-5.8-10.9-13.4-14.1-21.6-2.4-6-5.8-11.5-9.9-16.6-6.5-8.1-14.8-12.1-25.1-13.9-14.4-2.5-29.5-4.2-41-15.2-6.8-6.4-12.9-13.4-18.3-21.1-2.7-3.9-5.7-7.7-8.9-11.8"/>
  <path fill="#1a1a1a" d="M700.5 243.5c5.3 14.6 15.5 25.1 25.6 35.8 10.4 11.1 18.9 23.3 20.6 39 1.1 10-3.1 18.5-8.2 27.2-2.1-2.7-.7-4.5.2-6 8.7-14.5 6-28.3-2.2-42-5-8.5-11.3-16.1-18.4-22.9-10.6-10-17.2-22.3-22.4-35.6-2.8-7.1-5.4-14.3-8.6-21.3-8.9-19.9-24.9-32.1-44.8-39.5-14.7-5.5-29.5-10.4-42.8-18.9-11.7-7.5-20.1-17.3-24.7-30.4-2.4-6.6-5.2-13-7.7-19.5-.5-1.4-1.4-2.7-.8-4.3 2.5.1 2.6 2 3.1 3.5 2.9 7.2 5.9 14.5 8.7 21.8 7.1 18.2 22.2 27.6 38.8 35.3 8.2 3.8 16.7 6.6 25.2 9.6 23.6 8.5 41.1 23.4 50.1 47.4 2.6 6.9 5.4 13.7 8.3 20.8"/>
  <path fill="#1a1a1a" d="M500.6 71.7c-6.2.9-12 1.7-17.8 2.6 1.5-3 4-2.9 6.1-3.2 16.7-2.9 33.4-3.8 50.1-.6 8 1.5 15.3 4.6 22.2 8.8 9.6 5.9 19.7 10.4 31.5 9.4 6-.5 11 2.4 13.5 7.7 8.3 17.9 23.4 26.6 41.2 32.1 14.6 4.4 28.4 10.6 40.1 20.6 11.2 9.7 20 21.3 24.1 35.4 2.7 9.3 7.5 15.7 15.7 20 1.8.9 4.2 1.4 4.8 3.9-1.1 1.3-2.1.5-3.1-.1-9.7-4.8-16.4-11.3-20-22.6-7.8-23.9-24.6-40.3-48.1-49.5-8.2-3.3-16.4-6.5-24.8-9.3-13.2-4.3-23-12.6-29.4-24.8-4-7.7-9.4-11.8-18.6-11.2-8.5.6-16.5-2.3-23.6-7-19.5-12.7-41.1-14.1-63.9-12.2M419 567c2.1-5.6 6-8.3 12.1-7.7 1.5.1 2.3-1.2 3.2-2.2 1.3-1.2 2.3-2.9 4.5-2.9 1.6 1.1 1 3 1.5 4.5.5 1.4.7 2.9 1.1 5 1.5-5.9 7-4.5 10.1-7.1 2.5 2.5 2.4 5.9 4.3 8.8 1.4-4.3 5.9-6.3 6.9-11.1 3.5 1.4 5.5 4 5.1 7.4-.3 2.2-2 .1-3.1 0-2.3 4.9-3.5 10.8-11.1 9.9-1.5-.2-1.7 1.7-2.1 3-.5 2.1.6 2.9 2.4 3.6 4.7 1.9 5.9 6.1 7.5 11-5.3-.7-9.4-1.4-9.8-7.7-.4 9.3-2.2 17.2-11.7 20.9 3.5-4.8 8.3-8.7 8.4-15.6 0-6.2.4-12.2-.1-18.6-2.2.2-3.5 2.1-5.3.9-.9 1.4.8 2.8-.5 3.9-1.9 1-6.6-5.3-8-10.6-3.8-.3-6.6 1-8.3 4.7s1.8 4.9 3.1 7.1c1.3.3 1.2-2.1 2.9-1.3 1.7 1.7 1 4.3 1.8 6.8l.1.3c-1.7 2-3.1 4.3-6.5 5 1.2-3.7-.4-6.8-1.1-10.5-.8 3.5-1.8 6.4-5.6 7.1-.7-2.3 1.5-3 1.7-4.6.6-3 3-6.7-2.6-7.6-.4-.1-.5-1.2-.8-2.1zm246.8-100.5c2.2-9.4 7.5-16 15.1-20.8 6.3-4.1 12.8-7.8 19.1-11.8 8.9-5.7 13-13.8 12.7-24.4-.2-11.5-2.2-23 .9-34.3 3-11 5.9-22.1 14.8-30.4 2.2-2.1 3.6-5 5.4-7.4 2 1 1.4 2.2.9 3.2-1.2 2.1-2.4 4.5-4.1 6.2-11.7 12.2-15.6 27.1-15.7 43.4 0 7 .2 14 .3 21 .1 9.8-3.8 17.6-11.8 23.5-5.9 4.5-12.4 7.7-18.6 11.6-4.2 2.6-7.9 5.6-10.9 9.4-4.7 5.9-6.7 12.5-5 20.1 2.1 9.6 5.6 18.8 6.8 28.6.9 7.2 1.1 14.3-.7 21.3-3 12-4.7 24.2-5.7 36.5-.4 4.5-1 9.3-5.6 12.2 1.5-5.4 3.3-10.7 3.5-16.3.4-11.7 2.9-23 5.5-34.4 2.8-12.8-.1-25.1-3.9-37.2-2-6.4-3.9-12.8-3-20m39.5 171.7c-2.8 4.3-6.4 7.4-10.1 10.2-9.2 7-15.1 16.4-19.2 26.9-8.1 20.9-18.2 40.7-32.8 58-13.8 16.2-21.3 35.2-25.2 55.8-2.1 10.9-8.6 18.4-17.6 24.4-5.9 3.9-11.8 8-17.7 12.1-5.5 3.9-9.7 8.6-9.9 15.9 0 .5-.6 1.1-1.6 2.9-1.2-5.8 0-9.9 2.6-13.5 2.8-4 6.5-7.1 10.5-9.9 5.9-4 11.8-8.1 17.7-12.1 7.5-5 11.5-12.2 13.6-20.8 1.9-7.6 3.6-15.2 6-22.6 4.7-14.3 13.1-26.3 22.3-37.7 12-14.6 20.6-31.1 27.5-48.5 5.6-14 12.8-26.6 25.2-35.8 5.9-4.4 9.5-10.6 12.7-17.1.7-1.5.8-3.3 2.6-4 .9 3.5-.8 7.6-6.6 15.8"/>
  <path fill="#1a1a1a" d="M688.3 484.7c1.6 12.1 5 23.5 5.3 35.4.3 11.6-.8 23-7.2 33.1-4.7 7.4-6.1 15.8-6.8 24.3-.3 3.2-1.1 6.3-3.2 8.7-1.5-.4-1.7-1.1-1.6-1.7 3.3-12.7 4.3-25.8 11.6-37.5 6.7-10.8 5.1-23.5 3.7-35.6-1.1-9.6-3.3-19-5-28.5-1.8-10.6.8-19.5 9.6-26.1 5.7-4.3 11.6-8.4 17.2-13 7.8-6.4 12.5-14.5 12-25.1-.3-7.1-.3-14.3-.9-21.4-1.7-19.2 5.6-34.8 18.4-48.4.7-.8 1.4-2 3.3-1.2-.1 2.4-1.9 4-3.4 5.6-12.8 13.6-17.8 29.6-15.5 48.2.8 5.6.5 11.3.7 17 .5 12.6-5.5 21.9-15.1 29.4-4.1 3.2-8.2 6.3-12.5 9.1-10 6.6-13.5 15.7-10.6 27.7"/>
  <path fill="#1a1a1a" d="M694.2 419.2c-7.9 6.2-17.2 8.9-26.1 12.1-20.8 7.6-24.9 23.6-20.1 41.1 3.6 13.3 5.2 26.2.6 39.7-3 8.9-1.2 17.8 3.8 25.8 3.5 5.5 5.3 11.7 4.9 18.1q-1.2 18.15-3 36.3c-.2 2.8-.9 5.8-2.8 8.1-2.2-.9-1.4-2.1-1.2-3.1 3.5-13.3 3.1-27 4.4-40.5.6-6.4-1.4-12.2-4.7-17.6-5.7-9.2-7.1-19.2-3.6-29.2 4-11.7 3.1-22.9-.4-34.2-3.1-10-3.5-20 .5-29.9 3.8-9.2 11.7-13.7 20.4-17.2 4.7-1.8 9.3-3.6 14.1-5.2 13.7-4.6 19.5-14.4 19.4-28.5 0-6.7-.2-13.4 1.4-19.9.6-2.7.9-5.5 5.1-7.8-4.5 11.1-3.9 21.6-4.4 32-.3 7.8-2.5 14.3-8.3 19.9m-62.4 395.6c2.5-3.5 4.9-6.8 7.2-10 2.8-4 3.5-8.1 1.5-12.7-2.1-4.9-.9-9.7 2.6-13.5 7-7.9 10.4-17.5 14.2-27.2 8.7-21.9 16.9-44.2 30.3-63.9 3.6-5.3 8-10.2 12.1-15.2.9-1.1 1.5-2.7 3.5-2.4 1.1 2.2-.7 3.4-1.8 4.6-12.4 14-21.6 29.7-28.7 47.1-5.6 13.7-11.9 27-16.7 41.1-2.1 6.2-5.7 11.6-10 16.5-3.4 4-4.8 8.1-2.6 13.3 2.5 5.9-.2 10.9-3.6 15.8-9.6 13.7-19.6 27.3-30 40.5-5.8 7.4-8.2 15.3-5 24.7 1.3 4 .5 8.6 3 13.2-3.7-1-3.4-3.5-3.9-5.2-4.3-12.6-4.3-24.5 4.7-35.6 8.1-10 16.2-19.9 23.2-31.1m-177.2 2.7c9.8 15.7 25 21.5 42 23 22.9 1.9 37.4 15 47.3 34.2 3.6 6.8 7.6 13.1 13.3 17.9 11.2 9.3 15.7 21.5 17 35.4.6 6.2 1.3 12.3 2 18.4.1 1.1.4 2.3-.8 3.6-2.7-3.7-2.2-7.9-2.6-11.9-.8-6.9-1.3-13.9-2.8-20.7-1.5-7-4.4-13.3-9.5-17.8-9.7-8.4-15.9-19-22.3-29.7-9.2-15.2-22.3-25.2-40.9-26.8-10.1-.9-20-3.2-29.1-8.3-4.8-2.7-8.3-6.6-11.7-10.8-8.4-10.3-17.4-20.1-24.4-31.5-3.9-6.4-10.1-10.4-16.8-13.8-2.7-1.4-5.9-2.2-7.7-4.8.3-1.2 1.1-1.3 1.6-1 10.1 4.8 20.3 9.6 26.4 19.7 5.3 8.9 11.8 16.9 19 24.9M595.5 121c2.6 0 2.8 2.2 3.7 3.6 6.6 11.2 15.7 18.6 28.9 20.6 8.1 1.3 16.1 3.1 23.7 6 21.5 8 34.1 24.5 43.3 44.6 8.2 17.9 18.4 34.7 30.5 50.3 1.9 2.5 4.2 4.7 6.7 6.7 9.9 8.1 15.7 18.8 20.1 30.5.7 2 1.5 4 .6 6.2-1.7.4-1.9-.9-2.2-2-3.8-12.9-10.4-24-20.7-32.9-6.7-5.8-12-12.7-16.5-20.5-5.2-8.9-11.1-17.4-15.8-26.6-3.6-7.1-7-14.4-10.7-21.5-10.9-20.5-28.2-32.2-50.8-36.6-6.1-1.1-12.3-2-18-4.3-11-4.5-19-12.4-22.8-24.1M489 789c14.3 9 29.9 12.5 46 14.9 12.8 2 24.8 0 36.3-5.8 15.1-7.5 22.4-20.2 25.4-36.1.5-2.5.3-5.2 2.3-8 1.9 3.9.5 7.3-.1 10.5-6.4 34.9-40.1 45.6-61.8 42.2-12.4-1.9-24.6-4.2-36.3-8.8-11.8-4.6-21.7-11.8-29.5-21.5-11.2-14.1-24-25.8-40.6-33.1-6.4-2.8-12.1-7-17.1-12.1-1.1-1.2-2.5-2.2-2.4-4.4 2.5-.2 3.6 1.8 4.9 3 4.4 4.6 9.7 8.2 15.4 10.8 16.2 7.5 29.8 18.2 40.5 32.6 4.5 6.2 10.3 11.2 17 15.8m129.3-64.7c-5.1 8.5-10.8 16.3-14.5 25.5-2.9-1.5-1.8-3.3-.9-5 11.2-19.8 22.6-39.4 40.8-53.9 11-8.7 17.8-20.2 20.4-33.9 2.2-11.3 6.1-21.3 14.8-29.2 8.6-7.8 11.7-18.8 15.5-29.3 3.4-9.3 10.9-14.9 18.1-20.9-1.5 4-4.2 7.3-7.4 9.8-4.2 3.4-6.9 7.8-8.4 12.7-4.4 13.9-10.7 26.5-21.7 36.4-5.3 4.8-6.2 11.4-7.3 17.7-3.1 17.3-11.8 31-25.3 41.8-9.7 7.9-17.3 17.5-24.1 28.3m-145-348.7c6.5 4.7 13.7 7.9 18.4 14.2 3.8 5 7.2 10.2 10.8 15.4.7.9 1.3 1.9.2 3.2-2.6-.3-3.2-2.6-4.3-4.4-2.3-3.7-5.2-6-9.7-7-6.8-1.6-12.8-5.4-18.4-9.5-6.2 4.1-6.8 4-9.8-2.6-4.7-10.4-10.7-19.8-21.4-25.7 4.5-1.4 6.2-.2 14.1 8.2 4 4.2 6.2 9.8 9.9 14.3 2.7-5.8-9.4-23.8-23-34.3 3.7-2 6.1.3 8.2 2.5 2.6 2.7 4.9 5.8 7.1 8.9 4.8 6.7 9.5 13.4 17.9 16.8m16 18.1c1.6-2.5-.8-3.6-2-4.8-4.1-4.4-9.5-7.1-14.5-10.3-1.2-.8-3-2.3-4.3-.2-1 1.5-.2 3.2 1.1 4.4 5.6 5 11.6 9.3 19.7 10.9m68.6 54.3c1.3 3.4 2.2 6.4 3.5 9.3 4 8.6 4.1 17.3 1.4 26.3-2.4 8.2-3 16.6-.1 25 .1.3-.2.9-.4 1.4-3.7-2-6-9.6-5.1-14.7 1.8-9.2 6-18.1 4.5-27.9-1.3-8-5.3-15-7.7-22.6-3.6-11.8-3.5-23.3 0-34.9 2.4-8 6.6-14.8 13.8-19.6 14.2-9.4 29.2-17.3 44.9-23.8 1.7-.7 3.5-2.1 5.5-.7-.2 2.2-1.9 2.4-3.2 2.8-14.3 5.3-27.4 13-40.5 20.4-20.4 11.6-22.8 34.3-18.8 51.5.6 2.4 1.4 4.8 2.2 7.5m113.9 350.3c.8 4.1 1.9 7.9 2.2 11.7.7 8.9-2.4 16.8-10.1 21.5-12.4 7.6-17.6 19.3-20.8 33.1-1.9-1.6-1.4-3.3-1.1-4.7 3-11.3 7-21.6 17.7-28.4 11.3-7 14.3-15.1 10.6-27.8-4-13.3-2.7-25.2 6.2-36.1 6-7.6 7-16.8 8.1-25.9 1-8.7 3.9-16.6 9.6-23.2 5.7-6.7 12.2-12.9 18.9-20 .8 3.7-1.1 5.2-2.6 6.7-3.9 4.1-8.1 8-11.9 12.1-6.7 7.2-10.6 15.6-11.4 25.5-.9 10-3.1 19.7-9.6 27.9-6.3 8.1-9 17-5.8 27.6m-92.9-146.1c-2.4 3.7-6.6 3.7-10.5 5.7-.1-4.2 2.6-6.2 5-7.6 5.3-3.2 7.9-8.3 7.1-14.6-1.4-11.2-7.6-18.5-17.6-23-3-1.4-6.1-2.8-9-4.3-9.8-5.2-15.9-13.2-19.3-23.8-4.1-13-11.7-22.6-26.8-23.7-6.1-.4-11.6-2.9-16.5-6.5-.8-.6-1.4-1.3-2.1-2 1.6-2 3-.7 4 0 5.5 3.9 11.6 5.7 18.2 6.6 14.6 1.9 21.8 11.9 25.8 24.6 3.4 10.9 10 18.6 20.1 23.5 1.5.7 3 1.5 4.5 2.2 18.6 8.8 23.9 19.6 19 40.5-.8 1.2-1.4 1.8-1.9 2.4m169.9-196.7c-1.2 1.1-1.5 2.9-3.8 2.7-.2-3.2.5-5.8 4.3-6.1 3-.3 2.4-3.2 3.9-4.6 6.7 1.2 13.6-3.4 16.2-10.7.8-2.2.4-3.8-2.6-3.8 6.9-23.1 14.1-45.8-3-68.1.9-.1 1.9-.3 2.8-.5 4.2 5.3 6.7 11.4 8.8 17.8 2.1 6.5 1.9 13.3 1.7 20.8 3.4-3.5 3.5-7.6 6-10.7 1.1 3.6-1.5 12.7-4.6 14.1-2.2 1.1-2.5 2.4-2.8 4.2-1 5.8-2.4 11.4-2.1 17.6.3 8.3-4.5 15.2-10.5 20.7-2.1 2-4.5 3.6-6.3 6.1-1.5 1.9-5.1 1.6-6.1 4.4-2.5-.8-1-2.8-1.9-3.9m-86.4-352c20 10.4 37.3 23.8 52.9 40.2-3.7 1.3-5.5-1-7.2-2.7-24.9-26.3-56.8-41.4-89.4-55.1-7.6-3.2-15.5-5-23.5-6.8-2.6-.6-5.5-.8-7.4-3.2 27 3.1 51 14.2 74.6 27.6m58 555.6c.9 18.4 1.3 36.4 7 53.7 2.5 7.4 5.4 14.6 10.5 20.8 3.7 4.5 5.4 10.3 9.3 14.7 5.2 5.9 10.9 11.2 17.2 15.8 2.8 2.1 5.4 4.3 8.7 7-2.6.8-3.9-.1-5.1-1-11.5-8.4-22.3-17.3-29.4-30.1-2.3-4.2-5.7-7.8-8-11.9-6.6-11.5-9.1-24.4-10.7-37.2-1.9-15-3.1-30.1-1.2-45.2.2-1.5.2-3 .5-4.5.1-.8.6-1.5 1.4-3.6 1.8 7.9-.2 14.5-.2 21.5"/>
  <path fill="#1a1a1a" d="M483.5 556.4c5.3 8.8 13.1 12.5 22.8 13.8 6.4.9 11.4 5.2 15.2 10.5 2.7 3.6 5 7.5 6.6 11.7 5.1 13.6 14 23 27.7 28.4 13.5 5.3 15.2 20.2 12.9 31.3-.5 2.4-1.9 4.9-4.7 5.8-1.2-1.2-.5-2 0-2.8 7.1-12.5 2.3-27.3-11-32.8-12.1-5.1-20.9-13.2-25.9-25.5-1.7-4.1-3.9-8.1-6.1-12-4-6.9-9.8-11.7-17.7-12.5-11.3-1.1-18-8.1-24-16.5 1.6-1.7 2.7-.2 4.2.6m268.8-193.1c4.3-6.8 10.1-11.4 17.2-14.2 4.3-1.7 8.2-.9 11.7 1.9 2.5 2.1 2.2 4.7.2 6.4-2.2 1.9-5.1 2.8-7.7 4.2-1.7-2.3 2.2-2.9.9-5.2-4 1.3-8.4 1.4-12.5 2.2-4.1.7-6.9 5.2-8.1 9.9-1.1 4.1-.4 8.6-2.9 12.4-1.8 1.1-2.6-1-4-1.3-3.4-.7-3.6-3-1.9-5.6 2.3-3.5 4.6-6.9 7.1-10.7M527 671c-1.4.6-2 2.8-4.3 2.4-.6-2.7 1.7-4.5 2-6.9.9-8-.9-15.1-7.4-20.1-5.4-4.2-7.7-9.7-7.6-16.1.3-10-4.4-16.2-13.4-19.3-5.4-1.8-9.3-4.9-11.8-10-2-4.3-5.2-7-10.1-8.1-4.8-1.1-8.2-5-12-7.8-2.1-1.6-2.9-4.3-2.2-7.6 3 1.8 5.5 3.3 7 6.3 1.7 3.5 4.9 5.5 8.5 6.5 5.2 1.4 8.8 4.7 11.2 9.3 2.4 4.5 5.7 7.4 10.7 9.1 9.5 3.2 14.8 9.7 14.5 20.2-.2 6.2 1.9 11.4 6.8 15.3 8.5 6.8 9.3 16.1 8.1 26.4zm36.9 58.2c1-.6 1.7-1 2.6-1.5 1.1 2.7-.8 3.6-2.1 4.6-5.1 3.7-10 7.8-14.3 12.4-12.5 13.3-27.6 15.2-44.1 10-18.4-5.8-34.9-15.6-50.6-26.6-1.2-.9-2.7-1.5-2.5-3.5 1.5-1.1 2.4.3 3.4 1 14.4 10 29.6 18.7 46 25 16.4 6.4 31.8 6.4 45.2-7 5.1-5.1 10.7-9.5 16.4-14.4m13.5-194.7c.4-1.9.7-3.3 1-4.8 1-5.8-.6-8.6-6-11-1-.4-2.5-.1-2.7-1.8 4.4-1.6 8.8.7 10.6 5.5 1.8 4.7.4 9.3-.8 13.7-2.1 8-2.8 16-1.5 24.2 1.1 6.5 4.5 11 9.9 14.3 5.1 3.1 10.3 6 15.5 9 7.5 4.2 11.8 10.4 13.2 18.9 1.1 6.2.5 12.3.8 18.4.1 1.5-.4 3-2.4 3.2-1.7-.9-1.1-2.3-.8-3.5 1.1-5.2.9-10.3.3-15.4-1-8-4.4-14.7-11.7-18.8-3.9-2.2-7.6-4.7-11.7-6.7-14.1-7.1-17.4-14.7-16-33.6.2-3.7 1.4-7.4 2.3-11.6m124.3 28.1c5.9-9.7 6.9-20.1 5.7-30.6-1.8-14.1.1-27.4 6-40.4 5.5-11.9 7.4-25.2 13.4-37 .8-1.5.8-3.6 3-4.3 2 1.2.8 2.7.2 3.8-8.1 15.5-11 32.8-17.9 48.6-3.4 7.9-3.3 16.6-2.3 25.1 1.4 12.8 1.3 25.3-6 36.7-2.1 3.3-2.1 3.3-5.6 4.8-.2-3 2.2-4.4 3.5-6.7"/>
  <path fill="#1a1a1a" d="M581.9 593.2c-18.7-8.7-21.8-29.4-21.1-46.7 2.7 1.1 2.4 3.4 2.4 5.4-.1 4.5.5 9 1.4 13.3 2.3 11.6 8 20.7 19 25.9 1.1.5 2.1 1.2 3.1 1.6 15.1 6.3 19.4 18.6 18.9 33.5-.1 4.5 2.3 9-.4 13.6-2.5 4.3-5.7 7.3-11 9.3.6-3.5 2.8-4.2 4.3-5.6 3.9-3.4 6.1-7 4.5-12.7-.9-3.5-.3-7.5-.3-11.3-.1-10.3-4.8-17.8-13.9-22.5-2.2-1.2-4.4-2.4-6.9-3.8m-53.1 131.6c3.3-3.6 5.7-7.5 7.9-11.4 4.6-8.2 10.9-14.7 19.2-19.1 11.7-6.3 19.9-15.2 23.4-28.4 2-7.9 7-11.6 12.9-11.4.3 1-.3 1.6-1.1 1.9-6.4 2.6-9 8-10.8 14.1-3 10.8-9.9 18.5-19.4 23.8-10.5 5.8-18.5 13.9-24.3 24.4-4.3 7.7-10.5 13.8-18.1 18.2-1.7 1-3.5 2.7-7.2.9 7.2-3.3 12.5-7.7 17.5-13M361 627c4.8 1.1 4.9 6.2 7.2 9.2 1.9 2.3 2.9 5.4 5.5 7.2 5.6 3.9 7.3 11.3 14 14.3 2.6 1.2 2.8 5.1 5 7.5 3.5 3.8 7.8 7.1 10.2 12.6.9 1.2 1.5 2 2 2.8-.5 1.2-1.4 2.4-2.6 1.2-6.3-6.5-13.6-12.1-17.9-20.5-1.9-3.6-6.2-4.9-8.6-8.3-2.1-3-5.5-5.1-8.1-7.8-2.8-2.8-4.4-6.4-4.8-10.2-.4-2.6-.9-4.9-1.8-7.7zm175.3-172.4c-4-2.5-4.5-6.5-5.3-10.1-2.1-8.9-5.4-17.1-11-24.3-1.1-1.5-2-3.1-2.9-4.7-2.5-4.5-1.6-8.2 2.7-11.2 1.6-1.1 3.5-2 5.3-2.8 6.6-3 13.4-5.7 17.7-13.2 1.6 3.8-.1 5.6-1.8 7.2-3.1 3.2-7.1 4.9-11 6.8-2.4 1.1-4.9 2.1-7.2 3.5-4.8 2.8-5.3 5-2.3 9.6 3.4 5.4 7.2 10.4 9.5 16.4 1.1 3.1 2.9 6.3 3 9.5.2 7.2 4.1 11.3 10 14.6 5.7 3.2 8.8 8.4 9.2 15.1.1 2.5 0 4.9-2.8 7.1 2.4-11.7-3.8-18.3-13.1-23.5"/>
  <path fill="#1a1a1a" d="M579 652.5c.4-.9 1-1.5 1.8-2.3 3.9-2.5 8.8-2.7 10.4-8.2 2.1-7.2 2.4-14-1.4-20.7-4.2-7.5-10-13.1-17.7-16.9-11.6-5.7-19.4-14.5-21.1-27.8-.2-1.9-.9-3.9.4-5.7 2.2.4 1.8 2.2 1.9 3.6 1.7 13 8.7 22 20.3 27.7 7.6 3.8 13.6 9.4 17.9 16.8 6.2 10.4 4.5 24.8-4.1 33.1-2.5 2.4-5.2 4.2-8.4.4m4.9 60.4c-3.4 2-5.6 5.2-9.3 6.7-.6-2.8 1.3-4 2.8-5 17.9-11.4 27.7-29.8 40-46 4.9-6.5 3.5-14.7 5.2-22.1 1.4-6.4 5.1-9.8 12.3-10.3.2 2.6-2 3-3.5 3.6-4.4 1.8-6.5 4.9-6.8 9.5-.2 3.7-.9 7.3-1.3 10.9-.4 4.1-2 7.8-4.3 11-6.4 9-12.8 17.9-19.3 26.7-4.3 5.8-9.7 10.6-15.8 15M540.5 489c3.2 6.1 7 11.4 8.7 17.8.8 2.6 1.7 5.3.8 8.5-3.1-.8-3.6-3.3-4.3-5.6-1.8-6-2.9-12.2-6.8-17.5-1.9-2.7-1.5-6.1-1.2-9.2 1.4-14.8-5.4-22.5-19.2-28.6-3-1.3-6.1-2.4-9.1-3.8-1.4-.7-3.3-1.1-3.2-4.1 11.3 5 23.6 7.8 30.9 18.8 2.6 3.8 3.3 8.3 3.2 12.9 0 3.4-.7 6.9.2 10.8m-134.7 6c-3.5-3.2-2.8-7.7-2.6-11 .1-3.3 4.8-4 7.9-3.1 3.1.8 2 3.5 1.2 5.8-.2.6-.3 1.2-.4 1.8 1.1 1.9 2.9-.8 4.3 1.5-4.5 6.7-.8 14.2.6 21.7l-2.4.6c-1.7-6.3-7.9-10.1-8.6-17.3M427 289c-5.8-10.2-14.9-15.6-25.3-19.6-10.2-4-20.3-8.4-30.4-12.6-7.8-3.3-16-4-24.4-3.8-1.7 0-3.7.9-5.3-1.1 2-2 4.6-1.7 6.9-1.7 12 0 23.3 3.3 34.2 8.1 9.8 4.4 19.8 8.6 29.6 13.2 6.3 3 11.4 7.4 14.8 13.7.6 1.1 2.7 2.5-.1 3.8m82.8 367.6c3 7.8 3.2 13.3.5 17.5-1.4-4.1-.2-8.3-1.4-12.3-1.2-3.9-3-7.3-6.6-9-7.1-3.3-10.6-9-11.4-16.4-1.1-11.8-8.1-18.1-18.9-20.9-5.5-1.5-9.7-4.4-12.3-9.4-.5-.9-1-1.9.9-3.1 3.8 8.9 13.1 9.4 20.4 13.2 7.3 3.7 11.4 10.2 12.3 18.3.9 7.5 4 13.2 11 16.5 2.3 1.1 3.9 3.1 5.5 5.6m-70.7 33.6c-.5-1.2-1.8-2-1.3-4.6 6.7 5.1 14.4 4.9 22.1 4.5-1.9 6.7.7 9.9 7.5 9.1 4.8-.5 9.6-.1 14.4-1.2 4.6-1.1 8.3-3.8 12.4-6.5 1 2.9-.9 3.9-2.2 4.7-11.7 6.9-24.5 8.7-36.6 3.1-4.9-2.2-9.6-5.9-15.3-8.4-.6-.3-.8-.5-1-.7m5.7 17.4c-.9-1-1.4-1.7-2-2.4 13.2 7.3 26.6 13.5 41.9 14.2 3.5.2 7.1-.5 10.6-1.3-8.4-1.8-17.1-1.8-24.9-6.2 10.3 1.1 20.5 3.5 30.9 2.9.8 4.8-2.2 5.8-5.1 6.4-11.7 2.3-22.9.1-33.7-4.1-6.2-2.4-12.4-4.7-17.7-9.5m145.9-21c-7 10.7-16.6 18.1-26.3 25.8-1.4-3.2.5-4 1.7-4.8 12.6-9.4 23.1-20.5 29.4-35.2 1-2.5 3.1-4.7 4.8-6.9 4-5.1 7.3-10.3 7.5-17 0-.9.4-1.6 1.4-1.9 2 .4 1.2 1.9 1.1 3.1-.9 6.4-3.2 12.2-7.5 17.1-5.2 5.8-7.8 13.1-12.1 19.8m132.6 47.6c-.9 7.5-2.3 14.6-4.9 21.2-6.3 16.1-7.1 33.4-11.9 49.8-1 3.3-.2 7.2-.2 11.1-3.1-.5-2.5-2.6-2.6-4.2-1-8.6 3.7-16.2 4.3-24.4 1.3-15.6 7.6-29.9 11.3-44.8 1.2-5 1.9-10 3-16.3 1.7 3.1.8 5.2 1 7.6m-181.2-47.1c-7.9 3.2-13.6 8.1-17 15.8-3 6.9-9 10.2-16.2 12.8 0-3 1.7-3.4 2.9-4 5.9-2.7 10-7.1 12.6-13 3.8-8.4 11.6-12 19.6-15.2 6.4-2.5 12.6-5.3 15.9-12 .9-1.8 1.7-3.6 2.4-5.5.7-1.6 1.3-3.4 4.1-4-2.7 8.4-5.2 16.2-13.5 20.2-3.4 1.7-7 3.2-10.8 4.9m-35.6-96.5c6 14.9 19.7 22.9 29.2 35-3 1-4.4-.8-5.8-2.3-5-5.6-10.2-11-15.9-15.9-2.9-2.5-5.1-5.7-6.6-9.2-3.8-9.1-10.6-14.7-19.7-17.8-2.4-.8-5.2-1.3-6.6-5.1 9.9 3.5 19.3 6.3 25.4 15.3m-60.8 245.7c13.2 16.4 30.8 25 49.8 31.7-14.7-1.2-26.6-8.8-38.2-16.8-11.7-8.2-18.6-21.5-30.8-29.3 7.9 2.7 13.6 8.2 19.2 14.4m204.6-226.8c-3.7 8.5-7.4 16.6-15.1 21.3-2.6-.4-1.5-2.9-3.3-3.5-3.3 2.5-4.2 7.9-10.4 8.8 4.9-7.4 11.3-12.6 13.4-21 3 2.4 1.7 5.7 4 8.1 5.9-5.3 7.9-12.7 10.9-20 2.5 2.4 1.2 4.2.5 6.3m87.5-391.1c-1-1.2-1.9-2.1-.5-3.2 13.9 7.9 26.5 50.8 23.7 67.1-2.3-6-2.5-11.3-3.3-16.6-2.5-17.4-8.6-33.3-19.9-47.3M419.7 471.8c1-4.2 3.6-2.9 5.6-1.9 1.7.9 3.3 2.1 5.3 1.1 1.7 6.4-.6 12-6.5 15.7-1.7-2.5-2.5-6.4-7.4-4.8 1.1-3.8 2-6.8 3-10.1m-48 219c2.4-12.5.1-24.9.8-37 5.9 7.7 2.3 54-5.2 63 .4-8.6 3.8-16.9 4.4-26m55.7-597.4c-7.7 4.1-15 8-22.3 12-.3-.6-.5-1.2-.8-1.8 20.2-13 41.8-23 65.6-27.9-14.3 5.3-28.7 10.3-42.5 17.7m-69.1 47.9c-3.9 3.3-6.1 8-10.9 9.9 13.8-19 31.6-33 52.4-43.4-14.3 10.4-29.2 20.1-41.5 33.5m200 519.6c-.8 2.2-1.9 3-4.2 2.9-2.8-.2-5.7-.9-8.6.4 1.1-3 1.1-6.4 6-5.7 2.1.3 2.5-2.4 3-4 2.3-7.5-.6-14.3-7.6-18.9-2.4-1.5-5.4-2.3-7.2-5.3 9.4.5 17.1 8.8 17.8 17.9.3 4.1-1.9 8.5.8 12.7m79.4-348.3c8.4 11 7.7 26.5-1.8 36.1-3.9 4-8.2 7.6-12.3 11.3-1.4-1.8.5-3 1.4-4 2.8-3.2 5.9-6.2 8.9-9.4 8.2-8.5 9.3-21.2 2.8-31.1-.7-1.1-2.5-2.1-.9-3.7.1-.2 1.1.3 1.9.8m-273.6 71.6c-5.8 1.7-10.8 5-17.3 5.7 10.9-11.9 51-19.3 58-11.3-.2.2-.5.7-.6.7-12.6-5.6-24.3-.9-36.1 3.3-1.2.4-2.4 1-4 1.6m261.4 198.5c3.4 11.2 6.3 22 1.5 33 .1-8.8-.4-17.5-1.9-26.2-1.6-9.5-9.3-14.1-15.7-20 6.9 2.5 12.7 6.1 16.1 13.2M542 578c-2.6-.6-3-2.8-3.7-4.9-3.8-11.5-11.8-18.1-23.5-20.7-4.6-1-9.5-1.5-12.7-5.7.6-.6.9-1.1 1-1.1 7.7 3.4 16.3 4.5 23.8 8.6 9.1 5 13 13.5 15.1 23.4zm-46.8 107.7c-1.2 1-2.2 1.2-2.4-.3-.1-.9.3-2 .8-2.8 7.2-10.8 2.3-14.8-8.5-19.7-6.7-3-10.7-7.5-13.2-13.9-.3-.7-.7-1.5 0-2.6 2-.1 2.6 1.7 3.2 3.1 2.2 5.9 6.5 9.1 12.4 11.3 7.7 2.9 12.6 9.8 11.8 15.4-.5 3.4-2.4 6.3-4.1 9.5m-1.9-328.9c-2-2.1-.1-2.9 1.1-3.3 9.4-3.1 19-2.8 28.8-1.6-9.2 1.1-17 5.7-25.5 10-.1-4.2 3.4-4.2 4.9-6.3-3.5-2.7-6.1.9-9.3 1.2M386.1 503.2c3.8-4.2 7.4-8 12.8-10.2-3.2 5 8 9.2.1 14.8-1-3.7-5.4-3.2-6.3-6.5-5.5 1.5-5.2 7.6-9.4 10.5-1.4-3.9 1.6-5.8 2.8-8.6m102.4-98.8c6.9 4.8 10.9 11.7 16.8 18.1-4.2.4-6-1.9-7.3-4-5.1-7.8-12.1-13-20.5-16.8-3.8-1.8-7.7-4.2-8.9-9.2 6 4.9 12.9 8.1 19.9 11.9m50.3-59.5c-.2-.6-.2-1.2-.1-1.2 8.3-1.7 16.1-5.5 24.6-6.7 1.3-.2 2.7.3 3.7 2.2-8.4 6.4-17.9 7.4-28.2 5.7m-57.3 360.2c12-.1 22.7-2.8 31.8-11.4 1 3.6-1.2 4.7-2.7 5.8-4.6 3.4-9.6 5.9-15.3 6.9-6.6 1.1-13.2 1.6-19.8 1.6-2 0-3.9-.3-5.9-1.7 3.9-2.6 7.8-.3 11.9-1.2M308.7 226c1.5-4.5 1.6-9.2 6.1-11.9-4.6 12.8-5.5 26.4-9.8 39.3-1.2-9.4 1.6-18.2 3.7-27.4m66.2 300.1c1.5-2.1 2-4.7 4.2-5.7 2.1 1.2 0 2.9.9 4.4 2-3.2 4.7-.2 7-1.5.6 3.3-.7 5.4-1.8 7.4-1.9 1.1-2-1.7-3.3-1.4-2 1.7-2.1 4.7-4.3 5.9-2.4-.8-.5-2.8-1.2-3.9-1.3 0-1.8 1.5-3.2.8-.9-2.2.7-3.8 1.7-6m33.4 277.6c-3.4-4.4-7.2-7.8-11.1-11.1-3-2.6-5.7-5.4-5.9-10.6 11 12.4 22.7 22.6 31.5 35.8-3.7-.3-4.9-1.5-14.5-14.1"/>
  <path fill="#1a1a1a" d="M438.8 690.1c.5.3.7.5 1 .7.2 1.1.6 2.1-.5 2.9-1.9.2-2.8-1.4-4-2.4-2-1.5-3.8-2.5-6.7-2.7-4.4-.2-7.9-3.2-10.2-7-.7-1.2-.8-2.9.1-4.3.5-.8 1.4-.8 2.2-.4 1.6.8.7 2 .7 3.3-.1 2.3 2.4 4.2 3.8 3.3 3.4-2.2 4.8.3 6.8 1.7 2.2 1.6 4.3 3.2 6.8 4.9M393 514.6c1.7 1.3 3-.9 4.6 0 .9 2.3 1 4.7.2 6.8-2.3 1.4-2.3-1.5-3.5-1.6-2.6 2.6-1.3 5.9-1.8 9-4.4-3.1-5.3-11.7-2.1-16.9 2.1-.4 1.6 1.6 2.6 2.7m50.4-146c8.4 7.1 13.9 16.1 19.4 25.2-5.8-1.9-7.8-7.6-10.9-12-3.3-4.7-7.7-8.5-11.5-12.6.8-1.7 1.8-1.2 3-.6m147.3-62.4c6 5.3 11.4 10.5 11.8 19-5.6-9.4-12.5-17.5-22-23.3 4.3-.3 7.1 2 10.2 4.3M666 583.4c1.3 12.4-3.4 22.6-9.9 33.4-1.8-3.3-.3-5.2.5-6.9 3.9-7.8 7.6-15.6 7.3-24.6 0-1.1.1-2.5 2.1-1.9m-157 94.2c3.1-.9 5.9-3.5 8.9-.8.3 1.8-.9 3.2-1.9 3.3-5.9.6-10.7 4.8-17.4 5.3 1.9-5.6 5.3-7.5 10.4-7.8m10.2 207.2c3.4.2 5.6 2.6 7.1 5 5.2 8.5 12 15.8 17.6 24 .5.6 1.1 1.3.3 2.7-10.4-8.7-15.5-21.6-25.1-31.1-.1-.4.1-.6.1-.6m25.3-334.5c4.4-3.2 3-7.6 2-12.2 4.4 2.9 5.7 12.3 3.8 19.6-5.8.8-5.8-3.1-5.8-7.4m-95.7-144.4c7.2 2.3 11.3 7.2 12 14.1.5 4.7 1.4 8.8 6.1 11.4-4.8.7-7.8-2.2-8.1-8-.3-6.2-3.1-10.7-8-14.1-1.9-1.4-4.7-.5-6.4-2.6 1.1-1.7 2.7-.8 4.4-.8M462 472c2.1 2.2 2.3 5.7 6.6 5.3 2.2-.1 2.8 2.7 1.4 5.4-2.3-1.2-4.4-1.3-6.6-1.7-2.2-.3-5-1.5-5.9-4-.9-2.1 1.7-4.1.7-6.4 2-1.2 2.7.3 3.8 1.4"/>
  <path fill="#1a1a1a" d="M450 417.8c-3.1-1.8-6-1.5-9-1-2.2.4-4.5 1.1-6.6-.9 5.3-1.9 10.8-3.4 16.3-.7 7.1 3.5 6.7 10.3 7.1 18-4.8-4.8-1.4-12.5-7.8-15.4m287.8-224.6c3.1 1.6 5.9 2.9 8.9 4.4-6.1 3-20.8-7.4-22-16.1 5.6 3 7.5 9.3 13.1 11.7M346.7 745.7c-5.6 4.9-10.7 9.8-17.6 12.4 8.9-8 18.1-15.6 26.8-23.9-2.2 4.5-5.4 8-9.2 11.5m53 19.5c1.2 1.9 3.3 2.9 3.4 5.2-6.1-1.2-16.1-17.9-15.6-27.1 5.2 7.3 6.5 15.7 12.2 21.9m5.9-254.7c1-1 .9-2.5 2.7-2.9 2.1 2.4 2.2 5.4 2.5 8.2-1.5 1.9-3.4-.2-5.1 1.1-.4 1-1 2.3-1.7 4-3.4-2.2-2.1-5.3-2.1-8 0-2.1 1.6-2.6 3.7-2.4M380 386.7c6.7-1.3 13-1.6 19.4.4-11.4-.2-22.3 2.5-33.3 4.8 3.9-3.4 8.8-3.9 13.9-5.2m185.2 141.6c1.9 6.2 1.4 11.5-3.2 16.4 3-9.2 2.4-17.5-5.8-24.1 4.9.7 6.9 4 9 7.7m174.9-62.4c-.1-1.8-.7-3.4 1.2-4.2 4.7 7.6 4.7 22.8-1.2 27.3 3.2-8.3 1.2-15.5 0-23.1M354.2 608c-.5-.6-.7-1.1-1-1.8-.5-3.5 1.4-2.6 3.2-1.8.3-2.8-1.6-5.7.9-8.5.8 6.4 4.8 11.9 5.6 20-3.2-3.6-4.8-6.9-8.7-7.9M532 680c4-1.7 6.6-5.3 11-5.6-5.8 7.7-15 9.8-22.6 14.6 2.5-4.7 7.2-6.3 11.6-9m-22.6-321.9c6.5-2 12.6-4.8 19.3-1.9-8 2.3-17.3.9-23 9.1-1-3.8-1-3.8 3.7-7.2m33.2 302.8c-1 1.8-1 4-4.4 4.3 5.9-9.6.1-15.9-6.9-22.8 8.6 2 13 9.9 11.3 18.5m63.5-18.2c7.3-3.8 10-10.5 11.7-17.5 1.6.2 2.1.8 1.9 1.8-1.4 7-3.8 13.4-10.8 17-1.8 1-1.8 1-2.8-1.3m4.7-317.4c-2.3.5-2.3-1.2-2.4-2.4-.7-6-3.4-11-7.3-15.5-.9-1.1-2-2.2-1.1-4.7 7.4 6 10.8 13.3 10.8 22.6M442.9 711.1c-5.6-3.9-10.7-7.8-15.1-12.6.4-.5.8-.9 1.2-1.4l21 16.8c-.2.4-.5.8-.7 1.2-2-1.3-4.1-2.5-6.4-4m-37.5-406.5c.7 1.8 1.8 3.1 1.1 5-3.1-2.1-9-14-10-20.4 6 3.7 6.3 10 8.9 15.4m362.2 144c1.8-2.6 3.6-4.8 5-7.2 1.3-2.2 2.1-4.6 3.3-7.4 2.1 5.6-4.4 16.9-12.2 21.9-.6-3.5 2.5-4.8 3.9-7.3m-10.4-68.9c-1.1-4.9-1-9.4 1.3-13.8 1 7.7 2.1 15.5 3.3 24.4-3.6-3.3-3.5-7-4.6-10.6M506.1 517.2c-.7-4.4-1.3-8.4-1.8-12.3 2.3-1 3.1.6 3.6 1.8 1.4 3 1.5 6.4 1.9 9.6.1 1.2-.5 2.4-1.7 2.8s-1.7-.5-2-1.9M542 578c5.3 4.2 6.3 11.2 11.2 15.6-5.7-.7-10.1-6.8-11.3-15.2zm181.1-52.9c2-6 2.5-12.1 5.9-17.3-.6 7.3-1.8 14.5-4.6 21.6-2.2-1.3-1.4-2.7-1.3-4.3M527 671c2.8-.9 5.7-4.8 8.7.3-1.8 3-4.2 5.5-7.9 4.8-2.6-.4-2.4-2.6-.9-4.8zm-8.1 214.1c-7.2-3.9-12.5-10.1-18.4-15.5 7.4 3.2 13.1 8.5 18.5 14.9.2.3 0 .5-.1.6m104.8-563.5c1.2 4.1 2.6 7.8 1.5 12-3.2-6.2-3.3-13.6-8.8-19.5 4.6.7 5.1 1.3 7.3 7.5m-88.6 186.1c-2.9-4.7-7.5-7.8-8.5-13.3 4.6 4.1 9.6 7.8 11.6 14-1.6 1.2-2.2.1-3.1-.7m77.5-191.4c-.5-2.1-1.3-3.8.7-6.2 3.5 5.9 4.1 11.9 3.4 18.2-3-3.4-2.3-7.9-4.1-12m-152.3-8.5c-.4 1.8-1.5 1.6-2.1.8-3.7-4.6-7.2-9.4-10.1-14.7 5.6 3.1 8.7 8.5 12.2 13.9M490.5 669c4.6 6.8 3.1 14.6-4.6 18.4 4.7-6.4 5.1-12.3 4.6-18.4m-17.7-172.7c-.1 4.7-.1 4.7-3.8 8.2 1.3-6.3.7-11.5-1.6-17.4 4.9 2.3 4.6 5.8 5.4 9.2m-10.4 3.1c.1-4.4.1-8.4.1-12.8 4 2.6 4.9 11.6 1.9 14.1-1.1.9-1.7.2-2-1.3m-83-98.9c-1.4-.1-2.1-.7-1.2-1.6 2.7-2.7 14.8-3.4 19.7-.8-6.6.5-12.5.8-18.5 2.4M600 290c-.8-3.7-5.4-5.1-6-10.2 5.2 2.5 7.9 6.2 10.6 9.9-1.6 1.8-2.8.6-4.3.4zM470 579c.1 1.4 1.5 2.6.8 4.2-4-.7-7.5-6.8-6.8-12.1 3.1 1.8 3.1 5.5 5.7 7.7zm34-68c-.3 2.5-.7 4.5-4 6 .9-4.5 0-8.2-.4-12.3 3.7.8 4.2 3.3 4.4 6.3m-43 160.5c.2 1.4-.5 1.7-1.4 1.6-5.5-.6-9.4-7.5-7.1-13.6 1.8 4.9 2.7 10.1 8.5 12m91-134c3.5 3.7 3.6 8 2.2 12.6-2.4-3.9-3.4-8-2.2-12.6m-31.4 84.1c1.2 2.8 3 5.1 2.5 8.1-4-3.8-5.7-8.9-8.8-14.5 4.4 1 4.7 4 6.3 6.4M419 567c-1.8 3.5-5.3 1.5-8.4 3.2 1-4.2 3.4-6.1 6.4-6.9 2.2-.6 2 1.5 2 3.3zm-39.7 42.2c-.9 1.8-.6 3.6-1.9 4.8-2.6-5.9 1.2-11.8 7.9-11.9-1.4 2.9-5.4 3.4-6 7.1m122.2 88.3c-1.9 1.5-3.4 3.1-6.8 2.7 3.3-4.2 8.2-5.9 9.5-10.8 1.8 3.6-.3 5.7-2.7 8.1m214.9-146.4c-1.3-4.6.8-8.8 1.4-13.2 1.9 4.6 2.1 9.1-1.4 13.2m-278.6 40.4c1.7-3.1.2-6.6 2.2-9.5 2.8 5.5.9 11.9-4.2 14.6-.8-2.2 1.5-3.1 2-5.1m211.7 271.3c5 3.8 5.3 9.9.5 16.4 1.2-5.5 1.9-11-.5-16.4M407.1 291.4c1.3 4.2 3.2 7.9 3.5 12.3-3.4-2.1-6.4-9.5-5.3-12.4.2-.7 1-.6 1.8.1m-76.5-108.7c-1.4 2.1-1.3 4.8-5.2 5.8 2.2-5.5 4-10.2 8.9-14.2.3 4.1-2.4 5.7-3.7 8.4m150.1 508.6c1.5 1.1.8 2 0 2.5-3.6 2.3-7.5 4-12.1 2.5 3.9-2.1 8.1-2.8 12.1-5m11.1-184.7c.3-2.2-1-4.2.1-6.1 4.3 3.4 4.5 7.1.6 10.8-2.2-1.1-.9-2.8-.7-4.7m-22 168.7c1.5 2.3 3.1 4.2 3 8.4-4.1-4.3-6-8.7-9.2-12.1 3-.4 4.4 1.7 6.2 3.7m140.3 216.9c.9 3.4 3.6 6 2.4 9.7-2.8-3.9-5-8-6-13.1 2.8.1 2.7 2 3.6 3.4"/>
  <path fill="#1a1a1a" d="M556.2 526.1c2.4 3.3 3.7 6.5 2.2 10.5-1.8-3.7-3.7-7.3-5.6-10.9 1.4-1.6 2.3-.5 3.4.4M444.1 305.4c.8-1 1.6-1 2.2-.2 2.3 2.9 4.4 5.9 6.2 9.3-4.7-1.1-6.7-4.8-8.4-9.1M366 599.2c2.7 4.3 1.9 9.2 2 14-3.1-4.2-2.7-9-2-14m19.8-99.5c-1.4 1.2-2.2 2.6-4.9 2.4 2-4.7 5.7-7 10.2-10.2-.5 4.4-3.6 5.4-5.3 7.8m7.9 127.9c-2 4.2-6.3 7.2-5.7 12.8-3.2-4.7-.5-10.3 5.7-12.8m85.7-90.7c2.1 2.4 3.6 4.6 1.4 7.6-4.8-.9-3.6-4.8-3.9-7.6-.2-1.4 1.4-.6 2.5 0M434 580c.4-.9.7-1.8 1.1-2.7.1-.2.5-.3.8-.5 2.3 3.8 1.5 7.4-2.6 11-1.5-2.6 1.1-4.7.7-7.4zm-93.8-21.1c-1-4.7-1.7-9.2-2.6-14.7 3.9 4.3 4.8 11.2 2.6 14.7m144-19.2c-1.2-1.9-3.1-3.1-2.8-5.4 4 .6 6.5 3.9 6.3 8.3-2 .2-2.3-1.6-3.5-2.9M338 294c3.5-.5 6.1-3.7 10.7-4.1-2.7 4.2-6.3 5.7-9.8 6.9-1.8.6-1.5-1.1-1-2.5zm437.7 70.3c2.2-2.4 3.9-5.2 8.1-3.9-1.5 3.5-4.9 4.2-7.3 5.9-.6.5-1.2-.7-.8-2m-331.5 30.2c-3.1 2-5.4.7-8.2-.9 2.6-2.8 5.7-2.1 8.3-1.8 1.7.1 1.1 1.6-.1 2.7m-72.5 126.4c1-2.1 1.7-4 4.7-5.3-.7 4.9-3.1 8.1-5.1 12.7-1.6-3.3-.3-5.2.4-7.4m-12.8 25.7c-.5-4.6 0-8.7 3.9-11.7-1.4 4-.2 8.6-3.9 11.7M469 559c-.4-1.3-1.4-2.3.4-3.4 2.6 2.2 5 4.6 5.4 8.8-3.5-.3-3.8-3.5-5.8-5.4m-26.7 113.2c-4.4-1.5-5.9-5.1-6.8-9.2 3.5 2.2 5.7 5.3 6.8 9.2m42.1 10.6c-.2 2-.1 3.7-2.4 4.7-.9-4.1.6-8.1-1.3-11.7 3.4 1.2 3.6 3.9 3.7 7m-21 1.6c1 1.1 1.5 2.1.1 2.5-2.5.8-6.6-2.9-6.9-6.4 3-.2 4.3 2.6 6.8 3.9m-65.8-377.2c-1.2-2.6-3.4-4.5-1.7-8.2 2.3 3.9 4.2 7.2 6.4 10.7-2.7 1-3.4-1.1-4.7-2.5m125.1 197.2c-.5-2.4.6-2.9 2-1.7 2 1.8 4 3.8 5.6 7-4.2-.2-5.7-2.7-7.6-5.3m-148.5 6.3c-1.8 2.2-3.3 4.2-4.8 6.2-.6-4.6 1.5-7.4 5-9.3 1.3 1.3.5 2-.2 3.1m141.5 8.4c.6 1.5 1.7 2.7.1 4.2-2.8-1.9-4.8-4.2-4.3-8.1 3.1 0 3.2 2.2 4.2 3.9m-57.9-55c-3.2 0-4.2-3.2-2.3-7.4 2.5 1.9 2.3 4.5 2.3 7.4m-46 218.1c-.8-1-1.5-1.7-.9-3.2 3.4 1.3 5.9 3.1 6.5 7.2-3.2.1-3.7-2.6-5.6-4m-41.1-53.1c1.1-2.7 1.1-2.7 3.7-4.5-.9 4-2.6 7.4-2.2 12.5-3-3.1-2-5.4-1.5-8m69.1-247.3c2.9-.1 5.5-.1 7.2 2.5-3.5 2.3-7.2 1.1-7.2-2.5m35.3 174.5c5.2.2 4.8 4.4 5.6 7.8-3.3-1.5-4.3-4.6-5.6-7.8M470 579c-.5-2.7-3.4-4.9-1.9-8.7 2.7 1.9 3.5 4.7 4.5 7.1.5 1.3-.8 1.6-2.3 1.6zm-98.4-13c1.4 0 1.7.7 1.1 1.6-1.5 2.3-3.1 4.5-5.2 6.6-.4-3.4.7-6.2 4.1-8.2m33.6 114.9c-.8-1.1-1.4-1.9-2.1-2.8 0-2.2.6-3.8 2.6-1.6 1.6 1.8 3.5 3.6 4 6.2-2.2 1.2-3-.9-4.5-1.8m26.4-367.8c-1.5-1.1-3.6-.9-4-2.8 3.3-1.9 4.9-1.2 7.2 3.3-1.1 1.3-2 .2-3.2-.5M345 576.2c-.6-3.4-2.1-6.5-.2-10.6 2 4.2 1.7 7.8 1.4 11.4 0 .1-.3.1-.4.1-.2-.2-.5-.4-.8-.9m168.4 110.4c1.8-3 3.8-5.4 7.7-5.1-2.2 2.3-3.6 5.7-7.7 5.1M544.1 567c-3-2.1-4.1-5-4.2-8.4 2.6 2.2 5.3 4.3 4.2 8.4m-164.7 65.2c-1.2 2.7-1.2 5.3-1.5 8.3-3.4-2-2.1-4.5-1.7-6.6.3-1.4.8-3.3 3.2-1.7M784 385.7c.8-2 .2-4 1.9-5.7 2.2 3.6.5 6.5-1 9.6-2-1-1.1-2.4-.9-3.9m-329.7 85.9c-3.8-.3-5.4-2.5-6-6.5 3.4 1.5 5.6 3.1 6 6.5m-87.7 73.9c-.8 1.3-.9 2.9-3.1 2.5-.2-3.4 1.6-5.7 4.2-7.9 1.6 2.4-.4 3.6-1.1 5.4m30.3 106.7c-1.2 2.5.7 4.4.5 6.6-4-3-4.1-6.1-.5-9.7.9.9.2 1.8 0 3.1m17.5 7.8c-.1 1.8-.9 2-1.8 1-2.2-2.5-2.6-5.3-.7-9.4 1 3.3 1.7 5.7 2.5 8.4M365 554.2c.9-.8 1.4-1.9 2.9-1.6 1 3.7-.8 5.5-4.3 6.5-.9-2.1.4-3.3 1.4-4.9m4.1 25.8c1.3-2.5 1.9-5.2 5.5-5.8-.6 3.2-2.3 5.4-4 7.4-1.3 1.6-1.7 0-1.5-1.6m78.2 103.7c1.1 1.4 2.6 2.2 2.3 4.3-3.3-.1-4.5-2.3-5.6-4.8 1.4-1.7 2.1-.3 3.3.5M406 663.1c.3-1.6 1.3-2 1.9-.9 1.4 2.1 3 4.1 3.4 7.2-3.7-.7-4-3.7-5.3-6.3"/>
</svg>